# Blender 4.0.1
# www.blender.org
mtllib thread_l_mesh.mtl
o Thread_l
v -1.136601 0.519085 -1.001231
v -0.463242 0.000000 -1.001231
v -1.068118 0.358679 -1.001231
v -0.953797 0.213975 -1.001231
v -0.804829 0.099136 -1.001231
v -0.635795 0.025406 -1.001231
v -0.963242 1.900000 -1.001231
v -1.363399 1.380915 -1.001231
v -1.122424 1.874594 -1.001231
v -1.252652 1.800864 -1.001231
v -1.341179 1.686025 -1.001231
v -1.379340 1.541321 -1.001231
v -0.463242 0.000000 -2.287576
v -1.136601 0.519085 -2.287576
v -0.635795 0.025406 -2.287576
v -0.804829 0.099136 -2.287576
v -0.953797 0.213975 -2.287576
v -1.068118 0.358679 -2.287576
v -1.363399 1.380915 -2.287576
v -0.963242 1.900000 -2.287576
v -1.379340 1.541321 -2.287576
v -1.341179 1.686025 -2.287576
v -1.252652 1.800864 -2.287576
v -1.122424 1.874594 -2.287576
v 0.463242 0.000000 -1.001231
v 1.136601 0.519085 -1.001231
v 0.635795 0.025406 -1.001231
v 0.804829 0.099136 -1.001231
v 0.953797 0.213975 -1.001231
v 1.068118 0.358679 -1.001231
v 1.363399 1.380915 -1.001231
v 0.963242 1.900000 -1.001231
v 1.379340 1.541321 -1.001231
v 1.341179 1.686025 -1.001231
v 1.252652 1.800864 -1.001231
v 1.122424 1.874594 -1.001231
v 1.136601 0.519085 -2.287576
v 0.463242 0.000000 -2.287576
v 1.068118 0.358679 -2.287576
v 0.953797 0.213975 -2.287576
v 0.804829 0.099136 -2.287576
v 0.635795 0.025406 -2.287576
v 0.963242 1.900000 -2.287576
v 1.363399 1.380915 -2.287576
v 1.122424 1.874594 -2.287576
v 1.252652 1.800864 -2.287576
v 1.341179 1.686025 -2.287576
v 1.379340 1.541321 -2.287576
vn 0.9671 -0.2545 -0.0000
vn -0.0000 1.0000 -0.0000
vn -0.9671 -0.2545 -0.0000
vn -0.1457 -0.9893 -0.0000
vn -0.3998 -0.9166 -0.0000
vn -0.6105 -0.7920 -0.0000
vn -0.7847 -0.6199 -0.0000
vn -0.9197 -0.3926 -0.0000
vn -0.1576 0.9875 -0.0000
vn -0.4927 0.8702 -0.0000
vn -0.7920 0.6105 -0.0000
vn -0.9669 0.2550 -0.0000
vn -0.9951 -0.0989 -0.0000
vn 0.1457 -0.9893 -0.0000
vn 0.3998 -0.9166 -0.0000
vn 0.6105 -0.7920 -0.0000
vn 0.7847 -0.6199 -0.0000
vn 0.9197 -0.3926 -0.0000
vn 0.1576 0.9875 -0.0000
vn 0.4927 0.8702 -0.0000
vn 0.7920 0.6105 -0.0000
vn 0.9669 0.2550 -0.0000
vn 0.9951 -0.0989 -0.0000
vn -0.0000 -1.0000 -0.0000
vt 0.442104 0.495797
vt 0.559417 0.015303
vt 0.559417 0.495797
vt 0.366686 0.547664
vt 0.103344 0.084833
vt 0.366686 0.084833
vt 0.679514 0.495797
vt 0.796827 0.015303
vt 0.796827 0.495797
vt 0.391733 0.644258
vt 0.655074 0.602802
vt 0.655074 0.644258
vt 0.391733 0.602802
vt 0.655074 0.562193
vt 0.391733 0.562193
vt 0.655074 0.526403
vt 0.841506 0.495797
vt 0.819468 0.015303
vt 0.841506 0.015303
vt 0.819468 0.495797
vt 0.103344 0.585907
vt 0.103344 0.547664
vt 0.366686 0.585907
vt 0.103344 0.617194
vt 0.629143 0.015303
vt 0.641130 0.495797
vt 0.629143 0.495797
vt 0.641130 0.015303
vt 0.658486 0.495797
vt 0.658486 0.015303
vt 0.655074 0.866842
vt 0.391733 0.908298
vt 0.391733 0.866842
vt 0.655074 0.908298
vt 0.391733 0.948907
vt 0.655074 0.948907
vt 0.391733 0.984697
vt 0.604096 0.495797
vt 0.582058 0.015303
vt 0.604096 0.015303
vt 0.582058 0.495797
vt 0.366686 0.046590
vt 0.103344 0.046590
vt 0.366686 0.015303
vt 0.391733 0.015303
vt 0.403719 0.495797
vt 0.391733 0.495797
vt 0.403719 0.015303
vt 0.421076 0.495797
vt 0.421076 0.015303
vt 0.442104 0.015303
vt 0.679514 0.015303
vt 0.391733 0.526403
vt 0.366686 0.617194
vt 0.655074 0.984697
vt 0.103344 0.015303
s 0
usemtl Threads
f 44/1/1 26/2/1 37/3/1
f 20/4/2 32/5/2 43/6/2
f 8/7/3 14/8/3 1/9/3
f 2/10/4 15/11/4 13/12/4
f 6/13/5 16/14/5 15/11/5
f 5/15/6 17/16/6 16/14/6
f 4/17/7 18/18/7 17/19/7
f 3/20/8 14/8/8 18/18/8
f 20/4/9 9/21/9 7/22/9
f 24/23/10 10/24/10 9/21/10
f 23/25/11 11/26/11 10/27/11
f 22/28/12 12/29/12 11/26/12
f 21/30/13 8/7/13 12/29/13
f 38/31/14 27/32/14 25/33/14
f 42/34/15 28/35/15 27/32/15
f 41/36/16 29/37/16 28/35/16
f 40/38/17 30/39/17 29/40/17
f 39/41/18 26/2/18 30/39/18
f 32/5/19 45/42/19 43/6/19
f 36/43/20 46/44/20 45/42/20
f 35/45/21 47/46/21 46/47/21
f 34/48/22 48/49/22 47/46/22
f 33/50/23 44/1/23 48/49/23
f 38/31/24 2/10/24 13/12/24
f 44/1/1 31/51/1 26/2/1
f 20/4/2 7/22/2 32/5/2
f 8/7/3 19/52/3 14/8/3
f 2/10/4 6/13/4 15/11/4
f 6/13/5 5/15/5 16/14/5
f 5/15/6 4/53/6 17/16/6
f 4/17/7 3/20/7 18/18/7
f 3/20/8 1/9/8 14/8/8
f 20/4/9 24/23/9 9/21/9
f 24/23/10 23/54/10 10/24/10
f 23/25/11 22/28/11 11/26/11
f 22/28/12 21/30/12 12/29/12
f 21/30/13 19/52/13 8/7/13
f 38/31/14 42/34/14 27/32/14
f 42/34/15 41/36/15 28/35/15
f 41/36/16 40/55/16 29/37/16
f 40/38/17 39/41/17 30/39/17
f 39/41/18 37/3/18 26/2/18
f 32/5/19 36/43/19 45/42/19
f 36/43/20 35/56/20 46/44/20
f 35/45/21 34/48/21 47/46/21
f 34/48/22 33/50/22 48/49/22
f 33/50/23 31/51/23 44/1/23
f 38/31/24 25/33/24 2/10/24
