# Blender 4.0.1
# www.blender.org
mtllib turret.mtl
o Cube.002
v -0.312124 2.500137 0.312124
v -0.312124 3.124385 0.312124
v -0.312124 2.500137 -0.312124
v -0.312124 3.124385 -0.312124
v 0.312124 2.500137 0.312124
v 0.312124 3.124385 0.312124
v 0.312124 2.500137 -0.312124
v 0.312124 3.124385 -0.312124
v -1.500000 2.000000 1.500000
v -1.500000 2.000000 -1.500000
v 1.500000 2.000000 0.161633
v 0.161633 2.000000 1.500000
v 1.398123 2.000000 0.673804
v 1.108002 2.000000 1.108002
v 0.673804 2.000000 1.398123
v 0.161633 2.500000 1.500000
v 1.500000 2.500000 0.161633
v 0.673804 2.500000 1.398123
v 1.108002 2.500000 1.108002
v 1.398123 2.500000 0.673804
v 0.161633 2.000000 -1.500000
v 1.500000 2.000000 -0.161633
v 0.673804 2.000000 -1.398123
v 1.108002 2.000000 -1.108002
v 1.398123 2.000000 -0.673804
v 1.500000 2.500000 -0.161633
v 0.161633 2.500000 -1.500000
v 1.398123 2.500000 -0.673804
v 1.108002 2.500000 -1.108002
v 0.673804 2.500000 -1.398123
v -0.834334 2.500000 1.500000
v -1.500000 2.389056 1.500000
v -1.089073 2.491555 1.500000
v -1.305031 2.467505 1.500000
v -1.449329 2.431512 1.500000
v -1.500000 2.389056 -1.500000
v -0.834334 2.500000 -1.500000
v -1.449329 2.431512 -1.500000
v -1.305031 2.467505 -1.500000
v -1.089073 2.491555 -1.500000
v 0.305953 2.790407 -0.200000
v 2.305952 2.790407 -0.200000
v 0.305953 2.751389 -0.196157
v 2.305952 2.751390 -0.196157
v 0.305953 2.713871 -0.184776
v 2.305952 2.713871 -0.184776
v 0.305953 2.679293 -0.166294
v 2.305952 2.679293 -0.166294
v 0.305953 2.648986 -0.141422
v 2.305952 2.648986 -0.141422
v 0.305953 2.624114 -0.111114
v 2.305952 2.624114 -0.111114
v 0.305953 2.605631 -0.076537
v 2.305952 2.605632 -0.076537
v 0.305953 2.594250 -0.039018
v 2.305952 2.594250 -0.039018
v 0.305953 2.590407 -0.000000
v 2.305952 2.590408 -0.000000
v 0.305953 2.594250 0.039018
v 2.305952 2.594250 0.039018
v 0.305953 2.605631 0.076536
v 2.305952 2.605632 0.076536
v 0.305953 2.624114 0.111114
v 2.305952 2.624114 0.111114
v 0.305953 2.648986 0.141421
v 2.305952 2.648986 0.141421
v 0.305953 2.679293 0.166294
v 2.305952 2.679293 0.166294
v 0.305953 2.713871 0.184776
v 2.305952 2.713871 0.184776
v 0.305953 2.751389 0.196157
v 2.305952 2.751390 0.196157
v 0.305953 2.790407 0.200000
v 2.305952 2.790407 0.200000
v 0.305953 2.829425 0.196157
v 2.305952 2.829426 0.196157
v 0.305953 2.866944 0.184776
v 2.305952 2.866944 0.184776
v 0.305953 2.901521 0.166294
v 2.305952 2.901521 0.166294
v 0.305953 2.931829 0.141421
v 2.305952 2.931829 0.141421
v 0.305953 2.956701 0.111114
v 2.305952 2.956702 0.111114
v 0.305953 2.975183 0.076536
v 2.305952 2.975183 0.076536
v 0.305953 2.986564 0.039018
v 2.305952 2.986565 0.039018
v 0.305953 2.990407 -0.000000
v 2.305952 2.990407 -0.000000
v 0.305953 2.986564 -0.039018
v 2.305952 2.986565 -0.039018
v 0.305953 2.975183 -0.076537
v 2.305952 2.975183 -0.076537
v 0.305953 2.956701 -0.111114
v 2.305952 2.956702 -0.111114
v 0.305953 2.931829 -0.141422
v 2.305952 2.931829 -0.141422
v 0.305953 2.901521 -0.166294
v 2.305952 2.901521 -0.166294
v 0.305953 2.866944 -0.184776
v 2.305952 2.866944 -0.184776
v 0.305953 2.829425 -0.196157
v 2.305952 2.829426 -0.196157
vn -1.0000 -0.0000 -0.0000
vn -0.0000 -0.0000 -1.0000
vn 1.0000 -0.0000 -0.0000
vn -0.0000 -0.0000 1.0000
vn -0.0000 -1.0000 -0.0000
vn -0.0000 1.0000 -0.0000
vn 0.9808 -0.0000 -0.1951
vn 0.8315 -0.0000 -0.5556
vn 0.5556 -0.0000 -0.8315
vn 0.1951 -0.0000 -0.9808
vn 0.1951 -0.0000 0.9808
vn 0.5556 -0.0000 0.8315
vn 0.8315 -0.0000 0.5556
vn 0.9808 -0.0000 0.1951
vn -0.0331 0.9995 -0.0000
vn -0.1107 0.9939 -0.0000
vn -0.2420 0.9703 -0.0000
vn -0.6422 0.7665 -0.0000
vn -0.0000 -0.0980 -0.9952
vn -0.0000 -0.2903 -0.9569
vn -0.0000 -0.4714 -0.8819
vn -0.0000 -0.6344 -0.7730
vn -0.0000 -0.7730 -0.6344
vn -0.0000 -0.8819 -0.4714
vn -0.0000 -0.9569 -0.2903
vn -0.0000 -0.9952 -0.0980
vn -0.0000 -0.9952 0.0980
vn -0.0000 -0.9569 0.2903
vn -0.0000 -0.8819 0.4714
vn -0.0000 -0.7730 0.6344
vn -0.0000 -0.6344 0.7730
vn -0.0000 -0.4714 0.8819
vn -0.0000 -0.2903 0.9569
vn -0.0000 -0.0980 0.9952
vn -0.0000 0.0980 0.9952
vn -0.0000 0.2903 0.9569
vn -0.0000 0.4714 0.8819
vn -0.0000 0.6344 0.7730
vn -0.0000 0.7730 0.6344
vn -0.0000 0.8819 0.4714
vn -0.0000 0.9569 0.2903
vn -0.0000 0.9952 0.0980
vn -0.0000 0.9952 -0.0980
vn -0.0000 0.9569 -0.2903
vn -0.0000 0.8819 -0.4714
vn -0.0000 0.7730 -0.6344
vn -0.0000 0.6344 -0.7730
vn -0.0000 0.4714 -0.8819
vn -0.0000 0.2903 -0.9569
vn -0.0000 0.0980 -0.9952
vt 0.625000 0.000000
vt 0.375000 0.250000
vt 0.375000 0.000000
vt 0.625000 0.250000
vt 0.375000 0.500000
vt 0.625000 0.500000
vt 0.375000 0.750000
vt 0.625000 0.750000
vt 0.375000 1.000000
vt 0.125000 0.750000
vt 0.125000 0.500000
vt 0.875000 0.500000
vt 0.736531 0.500000
vt 0.736531 0.750000
vt 0.625000 0.638469
vt 0.569528 0.000000
vt 0.625000 0.305472
vt 0.625000 0.388469
vt 0.375000 0.388469
vt 0.625000 0.611531
vt 0.375000 0.638469
vt 0.375000 0.611531
vt 0.625000 0.568850
vt 0.375000 0.568850
vt 0.625000 0.431150
vt 0.375000 0.431150
vt 0.375000 0.861531
vt 0.625000 0.818850
vt 0.625000 0.861531
vt 0.375000 0.818850
vt 0.625000 0.681150
vt 0.375000 0.681150
vt 0.263469 0.500000
vt 0.263469 0.750000
vt 0.819528 0.500000
vt 0.840756 0.750000
vt 0.819528 0.750000
vt 0.840756 0.500000
vt 0.875000 0.750000
vt 0.590756 0.000000
vt 0.590756 0.250000
vt 0.608753 0.983753
vt 0.569528 1.000000
vt 1.000000 1.000000
vt 0.968750 0.500000
vt 1.000000 0.500000
vt 0.968750 1.000000
vt 0.937500 0.500000
vt 0.937500 1.000000
vt 0.906250 0.500000
vt 0.906250 1.000000
vt 0.875000 1.000000
vt 0.843750 0.500000
vt 0.843750 1.000000
vt 0.812500 0.500000
vt 0.812500 1.000000
vt 0.781250 0.500000
vt 0.781250 1.000000
vt 0.750000 0.500000
vt 0.750000 1.000000
vt 0.718750 0.500000
vt 0.718750 1.000000
vt 0.687500 0.500000
vt 0.687500 1.000000
vt 0.656250 0.500000
vt 0.656250 1.000000
vt 0.625000 1.000000
vt 0.593750 0.500000
vt 0.593750 1.000000
vt 0.562500 0.500000
vt 0.562500 1.000000
vt 0.531250 0.500000
vt 0.531250 1.000000
vt 0.500000 0.500000
vt 0.468750 1.000000
vt 0.468750 0.500000
vt 0.437500 0.500000
vt 0.437500 1.000000
vt 0.406250 0.500000
vt 0.406250 1.000000
vt 0.343750 0.500000
vt 0.343750 1.000000
vt 0.312500 0.500000
vt 0.312500 1.000000
vt 0.281250 0.500000
vt 0.281250 1.000000
vt 0.250000 0.500000
vt 0.250000 1.000000
vt 0.218750 0.500000
vt 0.218750 1.000000
vt 0.187500 0.500000
vt 0.187500 1.000000
vt 0.156250 0.500000
vt 0.156250 1.000000
vt 0.125000 1.000000
vt 0.093750 0.500000
vt 0.093750 1.000000
vt 0.062500 0.500000
vt 0.028269 0.341844
vt 0.158156 0.028269
vt 0.471731 0.158156
vt 0.062500 1.000000
vt 0.031250 0.500000
vt 0.031250 1.000000
vt 0.000000 0.500000
vt 0.796822 0.014612
vt 0.514612 0.203178
vt 0.703178 0.485388
vt 0.633490 0.568850
vt 0.693850 0.508490
vt 0.657667 0.532667
vt 0.693850 0.741510
vt 0.657667 0.717333
vt 0.633490 0.681150
vt 0.569528 0.250000
vt 0.608753 0.266247
vt 0.590756 0.254223
vt 0.620777 0.284244
vt 0.306150 0.508490
vt 0.342333 0.532667
vt 0.366510 0.568850
vt 0.366510 0.681150
vt 0.342333 0.717333
vt 0.306150 0.741510
vt 0.625000 0.944528
vt 0.620777 0.965756
vt 0.590756 0.995777
vt 0.500000 1.000000
vt 0.341844 0.471731
vt 0.296822 0.485388
vt 0.158156 0.471731
vt 0.250000 0.490000
vt 0.203178 0.485388
vt 0.116663 0.449553
vt 0.080294 0.419706
vt 0.050447 0.383337
vt 0.014612 0.296822
vt 0.010000 0.250000
vt 0.014612 0.203178
vt 0.028269 0.158156
vt 0.050447 0.116663
vt 0.080294 0.080294
vt 0.116663 0.050447
vt 0.203178 0.014612
vt 0.250000 0.010000
vt 0.296822 0.014612
vt 0.341844 0.028269
vt 0.383337 0.050447
vt 0.419706 0.080294
vt 0.449553 0.116663
vt 0.485388 0.203178
vt 0.490000 0.250000
vt 0.485388 0.296822
vt 0.471731 0.341844
vt 0.449553 0.383337
vt 0.419706 0.419706
vt 0.383337 0.449553
vt 0.000000 1.000000
vt 0.750000 0.490000
vt 0.796822 0.485388
vt 0.841844 0.471731
vt 0.883337 0.449553
vt 0.919706 0.419706
vt 0.949553 0.383337
vt 0.971731 0.341844
vt 0.985388 0.296822
vt 0.990000 0.250000
vt 0.985388 0.203178
vt 0.971731 0.158156
vt 0.949553 0.116663
vt 0.919706 0.080294
vt 0.883337 0.050447
vt 0.841844 0.028269
vt 0.750000 0.010000
vt 0.703178 0.014612
vt 0.658156 0.028269
vt 0.616663 0.050447
vt 0.580294 0.080294
vt 0.550447 0.116663
vt 0.528269 0.158156
vt 0.510000 0.250000
vt 0.514612 0.296822
vt 0.528269 0.341844
vt 0.550447 0.383337
vt 0.580294 0.419706
vt 0.616663 0.449553
vt 0.658156 0.471731
s 0
f 2/1/1 3/2/1 1/3/1
f 4/4/2 7/5/2 3/2/2
f 8/6/3 5/7/3 7/5/3
f 6/8/4 1/9/4 5/7/4
f 7/5/5 1/10/5 3/11/5
f 4/12/6 6/8/6 8/6/6
f 27/13/6 16/14/6 17/15/6
f 32/16/1 10/2/1 9/3/1
f 37/17/2 27/18/2 21/19/2
f 26/20/3 11/21/3 22/22/3
f 22/22/7 28/23/7 26/20/7
f 25/24/8 29/6/8 28/23/8
f 24/5/9 30/25/9 29/6/9
f 23/26/10 27/18/10 30/25/10
f 12/27/11 18/28/11 16/29/11
f 15/30/12 19/8/12 18/28/12
f 14/7/13 20/31/13 19/8/13
f 13/32/14 17/15/14 20/31/14
f 21/33/5 22/22/5 12/34/5
f 37/35/15 33/36/15 31/37/15
f 40/38/16 34/39/16 33/36/16
f 39/4/17 35/40/17 34/1/17
f 38/41/18 32/16/18 35/40/18
f 9/9/4 34/42/4 32/43/4
f 42/44/19 43/45/19 41/46/19
f 44/47/20 45/48/20 43/45/20
f 46/49/21 47/50/21 45/48/21
f 48/51/22 49/12/22 47/50/22
f 50/52/23 51/53/23 49/12/23
f 52/54/24 53/55/24 51/53/24
f 54/56/25 55/57/25 53/55/25
f 56/58/26 57/59/26 55/57/26
f 58/60/27 59/61/27 57/59/27
f 60/62/28 61/63/28 59/61/28
f 62/64/29 63/65/29 61/63/29
f 64/66/30 65/6/30 63/65/30
f 66/67/31 67/68/31 65/6/31
f 68/69/32 69/70/32 67/68/32
f 70/71/33 71/72/33 69/70/33
f 72/73/34 73/74/34 71/72/34
f 73/74/35 76/75/35 75/76/35
f 76/75/36 77/77/36 75/76/36
f 78/78/37 79/79/37 77/77/37
f 80/80/38 81/5/38 79/79/38
f 82/9/39 83/81/39 81/5/39
f 84/82/40 85/83/40 83/81/40
f 86/84/41 87/85/41 85/83/41
f 88/86/42 89/87/42 87/85/42
f 90/88/43 91/89/43 89/87/43
f 92/90/44 93/91/44 91/89/44
f 94/92/45 95/93/45 93/91/45
f 96/94/46 97/11/46 95/93/46
f 98/95/47 99/96/47 97/11/47
f 100/97/48 101/98/48 99/96/48
f 94/99/3 78/100/3 62/101/3
f 102/102/49 103/103/49 101/98/49
f 104/104/50 41/105/50 103/103/50
f 71/106/1 87/107/1 103/108/1
f 2/1/1 4/4/1 3/2/1
f 4/4/2 8/6/2 7/5/2
f 8/6/3 6/8/3 5/7/3
f 6/8/4 2/67/4 1/9/4
f 7/5/5 5/7/5 1/10/5
f 4/12/6 2/39/6 6/8/6
f 17/15/6 26/20/6 27/13/6
f 26/20/6 28/109/6 30/110/6
f 28/109/6 29/111/6 30/110/6
f 30/110/6 27/13/6 26/20/6
f 27/13/6 37/35/6 16/14/6
f 37/35/6 31/37/6 16/14/6
f 16/14/6 18/112/6 17/15/6
f 18/112/6 19/113/6 17/15/6
f 19/113/6 20/114/6 17/15/6
f 32/16/1 36/115/1 10/2/1
f 21/19/2 10/2/2 37/17/2
f 10/2/2 36/115/2 39/116/2
f 36/115/2 38/117/2 39/116/2
f 39/116/2 40/118/2 10/2/2
f 40/118/2 37/17/2 10/2/2
f 26/20/3 17/15/3 11/21/3
f 22/22/7 25/24/7 28/23/7
f 25/24/8 24/5/8 29/6/8
f 24/5/9 23/26/9 30/25/9
f 23/26/10 21/19/10 27/18/10
f 12/27/11 15/30/11 18/28/11
f 15/30/12 14/7/12 19/8/12
f 14/7/13 13/32/13 20/31/13
f 13/32/14 11/21/14 17/15/14
f 9/10/5 10/11/5 21/33/5
f 21/33/5 23/119/5 24/120/5
f 24/120/5 25/121/5 22/22/5
f 22/22/5 11/21/5 12/34/5
f 11/21/5 13/122/5 12/34/5
f 13/122/5 14/123/5 15/124/5
f 15/124/5 12/34/5 13/122/5
f 12/34/5 9/10/5 21/33/5
f 21/33/5 24/120/5 22/22/5
f 37/35/15 40/38/15 33/36/15
f 40/38/16 39/12/16 34/39/16
f 39/4/17 38/41/17 35/40/17
f 38/41/18 36/115/18 32/16/18
f 9/9/4 12/27/4 31/125/4
f 12/27/4 16/29/4 31/125/4
f 9/9/4 31/125/4 33/126/4
f 33/126/4 34/42/4 9/9/4
f 34/42/4 35/127/4 32/43/4
f 42/44/19 44/47/19 43/45/19
f 44/47/20 46/49/20 45/48/20
f 46/49/21 48/51/21 47/50/21
f 48/51/22 50/52/22 49/12/22
f 50/52/23 52/54/23 51/53/23
f 52/54/24 54/56/24 53/55/24
f 54/56/25 56/58/25 55/57/25
f 56/58/26 58/60/26 57/59/26
f 58/60/27 60/62/27 59/61/27
f 60/62/28 62/64/28 61/63/28
f 62/64/29 64/66/29 63/65/29
f 64/66/30 66/67/30 65/6/30
f 66/67/31 68/69/31 67/68/31
f 68/69/32 70/71/32 69/70/32
f 70/71/33 72/73/33 71/72/33
f 72/73/34 74/128/34 73/74/34
f 73/74/35 74/128/35 76/75/35
f 76/75/36 78/78/36 77/77/36
f 78/78/37 80/80/37 79/79/37
f 80/80/38 82/9/38 81/5/38
f 82/9/39 84/82/39 83/81/39
f 84/82/40 86/84/40 85/83/40
f 86/84/41 88/86/41 87/85/41
f 88/86/42 90/88/42 89/87/42
f 90/88/43 92/90/43 91/89/43
f 92/90/44 94/92/44 93/91/44
f 94/92/45 96/94/45 95/93/45
f 96/94/46 98/95/46 97/11/46
f 98/95/47 100/97/47 99/96/47
f 100/97/48 102/102/48 101/98/48
f 46/129/3 44/130/3 102/131/3
f 44/130/3 42/132/3 102/131/3
f 42/132/3 104/133/3 102/131/3
f 102/131/3 100/134/3 94/99/3
f 100/134/3 98/135/3 94/99/3
f 98/135/3 96/136/3 94/99/3
f 94/99/3 92/137/3 90/138/3
f 90/138/3 88/139/3 86/140/3
f 86/140/3 84/141/3 82/142/3
f 82/142/3 80/143/3 86/140/3
f 80/143/3 78/100/3 86/140/3
f 78/100/3 76/144/3 74/145/3
f 74/145/3 72/146/3 78/100/3
f 72/146/3 70/147/3 78/100/3
f 70/147/3 68/148/3 66/149/3
f 66/149/3 64/150/3 62/101/3
f 62/101/3 60/151/3 58/152/3
f 58/152/3 56/153/3 54/154/3
f 54/154/3 52/155/3 46/129/3
f 52/155/3 50/156/3 46/129/3
f 50/156/3 48/157/3 46/129/3
f 94/99/3 90/138/3 86/140/3
f 70/147/3 66/149/3 62/101/3
f 62/101/3 58/152/3 46/129/3
f 58/152/3 54/154/3 46/129/3
f 46/129/3 102/131/3 94/99/3
f 94/99/3 86/140/3 78/100/3
f 78/100/3 70/147/3 62/101/3
f 46/129/3 94/99/3 62/101/3
f 102/102/49 104/104/49 103/103/49
f 104/104/50 42/158/50 41/105/50
f 103/108/1 41/159/1 43/160/1
f 43/160/1 45/161/1 103/108/1
f 45/161/1 47/162/1 103/108/1
f 47/162/1 49/163/1 51/164/1
f 51/164/1 53/165/1 55/166/1
f 55/166/1 57/167/1 59/168/1
f 59/168/1 61/169/1 63/170/1
f 63/170/1 65/171/1 71/106/1
f 65/171/1 67/172/1 71/106/1
f 67/172/1 69/173/1 71/106/1
f 71/106/1 73/174/1 75/175/1
f 75/175/1 77/176/1 79/177/1
f 79/177/1 81/178/1 83/179/1
f 83/179/1 85/180/1 79/177/1
f 85/180/1 87/107/1 79/177/1
f 87/107/1 89/181/1 91/182/1
f 91/182/1 93/183/1 95/184/1
f 95/184/1 97/185/1 99/186/1
f 99/186/1 101/187/1 103/108/1
f 47/162/1 51/164/1 103/108/1
f 51/164/1 55/166/1 103/108/1
f 55/166/1 59/168/1 63/170/1
f 71/106/1 75/175/1 87/107/1
f 75/175/1 79/177/1 87/107/1
f 87/107/1 91/182/1 103/108/1
f 91/182/1 95/184/1 103/108/1
f 95/184/1 99/186/1 103/108/1
f 55/166/1 63/170/1 103/108/1
f 63/170/1 71/106/1 103/108/1
